<svg width="512" height="512" viewBox="0 0 512 512" fill="none" xmlns="http://www.w3.org/2000/svg">
<g clip-path="url(#clip0_1_165)">
<mask id="mask0_1_165" style="mask-type:alpha" maskUnits="userSpaceOnUse" x="284" y="285" width="104" height="105">
<path d="M335.976 389.19C307.437 389.19 284.159 365.834 284.159 337.195C284.159 308.557 307.437 285.2 335.976 285.2C364.515 285.2 387.793 308.557 387.793 337.195C387.793 365.834 364.515 389.19 335.976 389.19Z" fill="white"/>
</mask>
<g mask="url(#mask0_1_165)">
<path d="M412.737 285.2H258.957V389.19H412.737V285.2Z" fill="white"/>
<path d="M419.398 389.02H270.92C269.454 389.02 268.269 387.795 268.269 386.287V287.931C268.269 286.423 269.454 285.2 270.92 285.2H419.398C420.861 285.2 422.049 286.423 422.049 287.931V386.287C422.049 387.798 420.861 389.02 419.398 389.02Z" fill="#E73B44"/>
<path d="M323.946 285.2H270.92C269.454 285.2 268.269 286.423 268.269 287.931V386.287C268.269 387.795 269.454 389.02 270.92 389.02H323.946V285.2Z" fill="#01A858"/>
<path d="M323.969 361.677C337.136 361.677 347.81 350.678 347.81 337.11C347.81 323.543 337.136 312.541 323.969 312.541C310.8 312.541 300.126 323.543 300.126 337.11C300.126 350.678 310.8 361.677 323.969 361.677Z" fill="#FFDD43"/>
<path d="M331.923 328.915V339.841C331.923 344.361 328.354 348.039 323.967 348.039C319.582 348.039 316.013 344.361 316.013 339.841V328.915H331.923ZM334.574 323.45H313.362C311.898 323.45 310.71 324.673 310.71 326.181V339.841C310.71 347.386 316.645 353.502 323.967 353.502C331.288 353.502 337.226 347.386 337.226 339.841V326.181C337.226 324.673 336.038 323.45 334.574 323.45Z" fill="#FF4B55"/>
<path d="M331.923 328.915V339.841C331.923 344.361 328.354 348.039 323.969 348.039C319.582 348.039 316.013 344.361 316.013 339.841V328.915H331.923Z" fill="#F5F5F5"/>
<path d="M313.341 327.548C314.074 327.548 314.668 326.935 314.668 326.181C314.668 325.427 314.074 324.817 313.341 324.817C312.611 324.817 312.017 325.427 312.017 326.181C312.017 326.935 312.611 327.548 313.341 327.548Z" fill="#FFE15A"/>
<path d="M334.551 327.548C335.284 327.548 335.878 326.935 335.878 326.181C335.878 325.427 335.284 324.817 334.551 324.817C333.821 324.817 333.227 325.427 333.227 326.181C333.227 326.935 333.821 327.548 334.551 327.548Z" fill="#FFE15A"/>
<path d="M313.341 338.477C314.074 338.477 314.668 337.864 314.668 337.11C314.668 336.356 314.074 335.743 313.341 335.743C312.611 335.743 312.017 336.356 312.017 337.11C312.017 337.864 312.611 338.477 313.341 338.477Z" fill="#FFE15A"/>
<path d="M334.551 338.477C335.284 338.477 335.878 337.864 335.878 337.11C335.878 336.356 335.284 335.743 334.551 335.743C333.821 335.743 333.227 336.356 333.227 337.11C333.227 337.864 333.821 338.477 334.551 338.477Z" fill="#FFE15A"/>
<path d="M323.946 327.548C324.679 327.548 325.273 326.935 325.273 326.181C325.273 325.427 324.679 324.817 323.946 324.817C323.216 324.817 322.622 325.427 322.622 326.181C322.622 326.935 323.216 327.548 323.946 327.548Z" fill="#FFE15A"/>
<path d="M331.908 348.549C332.638 348.549 333.232 347.939 333.232 347.185C333.232 346.431 332.638 345.818 331.908 345.818C331.175 345.818 330.581 346.431 330.581 347.185C330.581 347.939 331.175 348.549 331.908 348.549Z" fill="#FFE15A"/>
<path d="M316.144 348.549C316.877 348.549 317.471 347.939 317.471 347.185C317.471 346.431 316.877 345.818 316.144 345.818C315.411 345.818 314.82 346.431 314.82 347.185C314.82 347.939 315.411 348.549 316.144 348.549Z" fill="#FFE15A"/>
<path d="M325.679 336.418V338.77C325.679 339.743 324.913 340.534 323.967 340.534C323.023 340.534 322.254 339.743 322.254 338.77V336.418H325.679Z" fill="#41479B"/>
<path d="M325.679 330.84V333.193C325.679 334.166 324.913 334.958 323.967 334.958C323.023 334.958 322.254 334.166 322.254 333.193V330.84H325.679Z" fill="#41479B"/>
<path d="M325.679 342.052V344.405C325.679 345.378 324.913 346.171 323.967 346.171C323.023 346.171 322.254 345.378 322.254 344.405V342.052H325.679Z" fill="#41479B"/>
<path d="M330.293 336.418V338.77C330.293 339.743 329.524 340.534 328.58 340.534C327.636 340.534 326.867 339.743 326.867 338.77V336.418H330.293Z" fill="#41479B"/>
<path d="M321.068 336.418V338.77C321.068 339.743 320.3 340.534 319.356 340.534C318.412 340.534 317.643 339.743 317.643 338.77V336.418H321.068Z" fill="#41479B"/>
<path d="M335.93 287.213C363.35 287.213 385.805 309.728 385.805 337.221C385.805 364.716 363.35 387.231 335.93 387.231C308.506 387.231 286.051 364.716 286.051 337.221C286.051 309.728 308.506 287.213 335.93 287.213ZM335.93 285.221C307.313 285.221 284.064 308.531 284.064 337.221C284.064 365.911 307.313 389.224 335.93 389.224C364.543 389.224 387.793 365.911 387.793 337.221C387.793 308.531 364.543 285.221 335.93 285.221Z" fill="#0D2C99"/>
</g>
<path fill-rule="evenodd" clip-rule="evenodd" d="M264.116 264.871C264.054 264.863 257.664 264.05 256.916 264.016C256.842 264.014 256.753 264.011 256.65 264.006C256.068 263.983 255.073 263.941 254.346 263.895C253.844 263.862 253.265 263.44 253.245 262.938C253.235 262.678 253.232 262.382 253.229 262.078C253.227 261.815 253.225 261.548 253.217 261.293C253.217 260.183 253.339 258.369 253.407 257.952C253.411 257.926 253.423 257.893 253.437 257.869C253.48 257.802 253.556 257.782 253.636 257.782H255.05C255.271 257.782 255.279 258.333 255.25 258.667C255.248 258.688 255.246 258.711 255.246 258.732C255.238 259.033 255.181 261.283 255.181 261.589C255.181 261.916 255.803 262.178 256.588 262.147C257.366 262.114 264.118 261.728 264.244 261.72C264.25 261.72 264.244 261.72 264.247 261.72L264.283 261.718C265.078 261.684 278.398 261.095 279.826 261.03C281.299 260.963 281.528 258.799 281.497 257.124C281.477 256.083 281.253 255.068 281.088 254.449C280.988 254.081 280.654 253.836 280.273 253.827L278.571 253.787C278.311 253.781 278.108 253.559 278.126 253.299C278.144 253.053 278.355 252.865 278.599 252.876L282.806 253.056C283.228 253.074 283.567 253.392 283.773 253.76C283.922 254.025 284.148 254.268 284.475 254.268C284.678 254.268 284.825 254.182 284.928 254.058C284.948 254.034 284.969 254.009 284.989 253.985C285.3 253.614 285.648 253.202 286.121 253.219C286.607 253.237 286.99 253.638 286.982 254.125C286.969 254.928 286.949 256.08 286.928 256.664C286.928 257.648 287.355 258.569 287.977 258.6C288.23 258.613 288.412 258.503 288.543 258.351C288.852 257.99 289.225 257.599 289.698 257.62L291.13 257.679C291.616 257.699 291.981 258.114 292.154 258.572C292.275 258.899 292.493 259.192 292.887 259.192C293.285 259.221 293.532 258.935 293.681 258.613C293.884 258.173 294.28 257.795 294.764 257.813L303.988 258.145C304.302 258.155 304.538 258.376 304.78 258.6C304.904 258.716 305.03 258.835 305.166 258.922C305.235 258.968 305.32 258.994 305.423 258.994C305.608 258.994 305.762 258.909 305.883 258.799C306.174 258.528 306.511 258.248 306.907 258.258L310.592 258.361C310.862 258.366 311.122 258.255 311.302 258.052L311.374 257.97C311.729 257.568 312.353 257.558 312.76 257.908C313.359 258.425 314.215 259.048 314.848 259.028C315.928 259.028 317.695 257.55 318.384 256.008C318.687 255.324 318.857 254.731 318.952 254.282C319.055 253.79 319.472 253.381 319.973 253.38C324.172 253.367 341.659 253.316 343.356 253.316C345.288 253.284 345.483 248.294 345.352 248.622C345.277 248.815 345.03 249.469 344.84 249.978C344.699 250.361 344.318 250.602 343.912 250.569L317.628 248.43C317.34 248.407 317.083 248.248 316.887 248.036C316.494 247.608 315.691 246.939 314.454 246.85C313.292 246.767 312.472 247.278 312.027 247.663C311.77 247.888 311.428 248.03 311.088 247.975L288.754 244.363C288.471 244.317 288.224 244.14 288.057 243.907C287.563 243.22 286.306 241.844 284.148 241.795C282.878 241.746 282.158 242.07 281.754 242.404C281.389 242.707 280.89 243.009 280.425 242.926C257.255 238.81 254.935 236.361 254.713 235.999C254.694 235.968 254.688 235.936 254.685 235.9C254.642 235.48 254.363 232.548 254.363 228.271C254.363 211.104 247.129 201.29 244.216 201.29C244.205 201.29 244.194 201.291 244.183 201.293C244.173 201.291 244.162 201.29 244.151 201.29C241.238 201.29 234.005 211.104 234.005 228.272C234.005 232.548 233.725 235.48 233.683 235.9C233.679 235.936 233.674 235.968 233.655 235.999C233.432 236.361 231.112 238.81 207.944 242.926C207.476 243.009 206.978 242.707 206.613 242.404C206.209 242.07 205.488 241.746 204.22 241.795C202.062 241.844 200.805 243.22 200.309 243.907C200.142 244.14 199.897 244.317 199.614 244.363L177.278 247.975C176.94 248.03 176.599 247.888 176.339 247.663C175.895 247.278 175.075 246.767 173.912 246.85C172.676 246.939 171.872 247.608 171.479 248.036C171.284 248.248 171.026 248.407 170.74 248.43L144.455 250.569C144.048 250.602 143.669 250.361 143.526 249.978C143.336 249.469 143.091 248.815 143.014 248.622C142.883 248.294 143.08 253.284 145.011 253.316C146.709 253.316 164.195 253.367 168.394 253.38C168.896 253.381 169.312 253.79 169.415 254.282C169.51 254.731 169.68 255.325 169.984 256.008C170.671 257.55 172.439 259.028 173.519 259.028C174.151 259.048 175.007 258.425 175.609 257.908C176.015 257.558 176.639 257.568 176.994 257.97L177.066 258.052C177.245 258.255 177.504 258.366 177.774 258.361L181.46 258.258C181.857 258.248 182.193 258.528 182.484 258.799C182.606 258.909 182.759 258.994 182.945 258.994C183.048 258.994 183.132 258.968 183.202 258.922C183.339 258.835 183.464 258.716 183.588 258.6C183.828 258.376 184.065 258.155 184.379 258.145L193.602 257.813C194.087 257.795 194.482 258.173 194.687 258.613C194.836 258.935 195.082 259.221 195.481 259.192C195.875 259.192 196.093 258.899 196.214 258.572C196.385 258.114 196.75 257.699 197.238 257.679L198.668 257.62C199.142 257.599 199.515 257.99 199.825 258.351C199.956 258.503 200.139 258.613 200.391 258.6C201.012 258.569 201.438 257.651 201.438 256.664C201.418 256.081 201.398 254.928 201.385 254.125C201.378 253.638 201.76 253.237 202.246 253.219C202.72 253.202 203.066 253.614 203.377 253.985C203.398 254.009 203.418 254.034 203.439 254.058C203.543 254.182 203.689 254.268 203.893 254.268C204.219 254.268 204.445 254.026 204.594 253.76C204.8 253.392 205.139 253.074 205.561 253.056L209.767 252.876C210.014 252.865 210.223 253.053 210.241 253.299C210.26 253.559 210.057 253.781 209.797 253.787L208.093 253.827C207.713 253.836 207.378 254.081 207.28 254.449C207.114 255.068 206.891 256.083 206.871 257.124C206.838 258.799 207.068 260.963 208.54 261.03C210.006 261.095 223.991 261.715 224.119 261.72C224.123 261.72 224.118 261.72 224.122 261.72C224.249 261.728 231.001 262.114 231.779 262.147C232.565 262.178 233.186 261.916 233.186 261.589C233.186 261.283 233.129 259.033 233.122 258.732C233.121 258.711 233.12 258.688 233.118 258.667C233.088 258.333 233.096 257.782 233.317 257.782H234.732C234.811 257.782 234.887 257.802 234.93 257.869C234.944 257.893 234.956 257.926 234.961 257.952C235.028 258.369 235.15 260.183 235.15 261.293C235.143 261.548 235.14 261.815 235.138 262.08C235.135 262.382 235.133 262.678 235.122 262.938C235.102 263.44 234.523 263.862 234.021 263.895C233.324 263.939 232.383 263.977 231.799 264.003C231.66 264.008 231.542 264.014 231.452 264.016C230.702 264.05 224.301 264.866 224.251 264.871H224.251H224.249C224.077 264.891 210.535 266.546 210.177 266.611C209.817 266.675 209.85 267.301 210.177 267.301C210.231 267.301 210.534 267.319 211.03 267.349C213.552 267.504 221.046 267.962 225.887 267.826C230.857 267.656 236.971 267.442 238.66 267.38C238.946 267.37 239.216 267.496 239.404 267.712C240.106 268.523 241.939 270.513 243.439 271.064C243.308 271.154 243.265 271.205 243.45 271.205H244.139C244.143 271.205 244.147 271.205 244.151 271.205H244.917C245.102 271.205 245.059 271.154 244.928 271.064C246.428 270.513 248.261 268.523 248.964 267.712C249.151 267.496 249.421 267.37 249.707 267.38C251.396 267.442 257.51 267.656 262.48 267.826C267.323 267.962 274.816 267.504 277.336 267.349C277.833 267.319 278.136 267.301 278.19 267.301C278.517 267.301 278.55 266.675 278.19 266.611C277.83 266.544 264.167 264.876 264.116 264.871Z" fill="#0D2C99"/>
<path d="M244.516 124.839C178.073 124.839 124.207 178.756 124.207 245.262C124.207 311.769 178.073 365.684 244.516 365.684C254.25 365.684 263.71 364.536 272.769 362.346C271.658 359.409 270.73 356.361 270.036 353.242C261.832 355.175 253.302 356.197 244.516 356.197C183.304 356.197 133.686 306.531 133.686 245.262C133.686 183.993 183.304 134.327 244.516 134.327C305.726 134.327 355.345 183.993 355.345 245.262C355.345 254.659 354.18 263.8 351.974 272.521C355.072 273.27 358.099 274.237 361.015 275.404C363.512 265.772 364.824 255.663 364.824 245.262C364.824 178.756 310.96 124.839 244.516 124.839Z" fill="#0D2C99"/>
</g>
<defs>
<clipPath id="clip0_1_165">
<rect width="512" height="512" fill="white"/>
</clipPath>
</defs>
</svg>
