<svg width="4336" height="1450" viewBox="0 0 4336 1450" fill="none" xmlns="http://www.w3.org/2000/svg">
<path d="M1922.62 920.988V215.012H2106.75V920.988H1922.62Z" fill="#fff"/>
<path d="M2749.73 215.012H2935.86L2614.63 920.988H2468.53L2147.3 215.012H2338.44L2543.58 691.671L2749.73 215.012Z" fill="#fff"/>
<path d="M3443.13 920.988L3380.08 774.786H3067.86L3004.81 920.988H2819.68L3148.91 215.012H3295.02L3625.26 920.988H3443.13ZM3126.9 636.595H3321.04L3223.97 410.282L3126.9 636.595Z" fill="#fff"/>
<path d="M3983.7 930C3911.65 930 3848.94 915.313 3795.56 885.939C3742.86 855.898 3702.16 813.84 3673.48 759.765C3644.79 705.023 3630.45 640.934 3630.45 567.499C3630.45 494.065 3644.79 430.31 3673.48 376.235C3702.16 321.493 3742.86 279.435 3795.56 250.061C3848.94 220.687 3911.65 206 3983.7 206C4055.75 206 4118.13 220.687 4170.83 250.061C4224.2 279.435 4264.9 321.493 4292.92 376.235C4321.61 430.31 4335.95 494.065 4335.95 567.499C4335.95 640.934 4321.61 705.023 4292.92 759.765C4264.23 813.84 4223.2 855.898 4169.83 885.939C4117.13 915.313 4055.08 930 3983.7 930ZM3983.7 788.805C4037.07 788.805 4078.77 770.113 4108.79 732.728C4138.81 694.675 4153.82 639.599 4153.82 567.499C4153.82 495.4 4138.48 440.658 4107.79 403.273C4077.77 365.888 4036.4 347.195 3983.7 347.195C3930.33 347.195 3888.63 365.888 3858.61 403.273C3828.59 439.99 3813.58 494.732 3813.58 567.499C3813.58 640.267 3828.59 695.343 3858.61 732.728C3888.63 770.113 3930.33 788.805 3983.7 788.805Z" fill="#fff"/>
<path d="M1925.54 1184.39H1998.69C2017.4 1184.39 2031.93 1188.98 2042.28 1198.17C2052.64 1207.35 2057.81 1220.38 2057.81 1237.25C2057.81 1253.95 2052.64 1266.97 2042.28 1276.33C2031.93 1285.68 2017.4 1290.35 1998.69 1290.35H1951.35V1361H1925.54V1184.39ZM1995.94 1269.56C2020.65 1269.56 2033.01 1258.79 2033.01 1237.25C2033.01 1215.87 2020.65 1205.18 1995.94 1205.18H1951.35V1269.56H1995.94ZM2163.65 1363C2146.95 1363 2132.42 1359.33 2120.06 1351.98C2107.87 1344.63 2098.43 1334.19 2091.75 1320.67C2085.07 1307.14 2081.73 1291.19 2081.73 1272.82C2081.73 1254.28 2084.98 1238.25 2091.5 1224.72C2098.18 1211.03 2107.7 1200.59 2120.06 1193.41C2132.42 1186.06 2146.95 1182.38 2163.65 1182.38C2180.51 1182.38 2195.13 1186.06 2207.49 1193.41C2219.85 1200.59 2229.28 1211.03 2235.79 1224.72C2242.47 1238.25 2245.82 1254.2 2245.82 1272.57C2245.82 1290.94 2242.47 1306.97 2235.79 1320.67C2229.28 1334.19 2219.85 1344.63 2207.49 1351.98C2195.13 1359.33 2180.51 1363 2163.65 1363ZM2163.65 1341.96C2181.35 1341.96 2195.13 1335.95 2204.98 1323.92C2214.83 1311.9 2219.76 1294.78 2219.76 1272.57C2219.76 1250.36 2214.83 1233.32 2204.98 1221.46C2195.29 1209.44 2181.52 1203.43 2163.65 1203.43C2146.11 1203.43 2132.42 1209.44 2122.56 1221.46C2112.88 1233.32 2108.03 1250.36 2108.03 1272.57C2108.03 1294.78 2112.88 1311.9 2122.56 1323.92C2132.42 1335.95 2146.11 1341.96 2163.65 1341.96ZM2424.3 1361H2395.74L2365.68 1304.38C2362.34 1298.37 2358.33 1294.2 2353.66 1291.86C2349.15 1289.35 2343.14 1288.1 2335.62 1288.1H2306.56V1361H2281.01V1184.39H2356.16C2375.7 1184.39 2390.57 1188.73 2400.75 1197.41C2411.11 1206.1 2416.29 1218.79 2416.29 1235.49C2416.29 1249.02 2412.44 1260.13 2404.76 1268.81C2397.25 1277.5 2386.47 1283.01 2372.45 1285.34C2381.13 1288.02 2388.31 1294.53 2393.99 1304.88L2424.3 1361ZM2353.16 1267.31C2366.18 1267.31 2375.79 1264.8 2381.97 1259.79C2388.31 1254.61 2391.49 1246.68 2391.49 1235.99C2391.49 1225.3 2388.4 1217.54 2382.22 1212.7C2376.04 1207.69 2366.35 1205.18 2353.16 1205.18H2306.31V1267.31H2353.16ZM2491.16 1361V1205.93H2431.54V1184.39H2577.09V1205.93H2517.22V1361H2491.16ZM2671.4 1363C2647.85 1363 2629.98 1356.91 2617.79 1344.72C2605.6 1332.52 2599.5 1314.57 2599.5 1290.86V1184.39H2625.06V1292.61C2625.06 1308.81 2628.9 1321.08 2636.58 1329.44C2644.43 1337.79 2656.04 1341.96 2671.4 1341.96C2686.6 1341.96 2698.12 1337.79 2705.97 1329.44C2713.82 1321.08 2717.75 1308.81 2717.75 1292.61V1184.39H2743.3V1290.86C2743.3 1314.4 2737.12 1332.36 2724.76 1344.72C2712.57 1356.91 2694.78 1363 2671.4 1363ZM2926.31 1267.31V1350.48C2918.79 1354.32 2909.36 1357.41 2898 1359.75C2886.65 1361.92 2875.12 1363 2863.43 1363C2845.56 1363 2830.11 1359.41 2817.09 1352.23C2804.06 1345.05 2794.12 1334.7 2787.27 1321.17C2780.43 1307.64 2777 1291.44 2777 1272.57C2777 1254.03 2780.43 1238 2787.27 1224.47C2794.12 1210.77 2803.89 1200.34 2816.58 1193.16C2829.44 1185.97 2844.56 1182.38 2861.93 1182.38C2874.45 1182.38 2885.98 1184.22 2896.5 1187.89C2907.02 1191.57 2915.96 1196.91 2923.3 1203.93L2914.03 1222.97C2905.68 1216.12 2897.42 1211.19 2889.23 1208.19C2881.05 1205.18 2872.03 1203.68 2862.18 1203.68C2843.14 1203.68 2828.53 1209.61 2818.34 1221.46C2808.32 1233.15 2803.31 1250.19 2803.31 1272.57C2803.31 1295.45 2808.48 1312.82 2818.84 1324.68C2829.19 1336.37 2844.31 1342.21 2864.18 1342.21C2877.21 1342.21 2890.07 1340.29 2902.76 1336.45V1286.85H2861.68V1267.31H2926.31ZM3100.3 1361L3081.51 1317.41H2992.08L2973.29 1361H2947.24L3025.9 1184.39H3047.44L3126.1 1361H3100.3ZM3000.85 1296.87H3072.75L3036.92 1213.2L3000.85 1296.87ZM3149.25 1361V1184.39H3175.05V1339.46H3260.73V1361H3149.25Z" fill="#fff"/>
<mask id="mask0_2100_41" style="mask-type:alpha" maskUnits="userSpaceOnUse" x="877" y="805" width="570" height="570">
<path d="M1162 1375C1005.03 1375 877 1246.97 877 1090C877 933.027 1005.03 805 1162 805C1318.97 805 1447 933.027 1447 1090C1447 1246.97 1318.97 1375 1162 1375Z" fill="#fff"/>
</mask>
<g mask="url(#mask0_2100_41)">
<rect x="738.324" y="766.731" width="847.349" height="646.537" fill="#fff" fill-opacity="0.3"/>
<path d="M1623.36 1361H803.639C795.555 1361 789 1354.45 789 1346.37V819.632C789 811.552 795.555 805 803.639 805H1623.36C1631.45 805 1638 811.552 1638 819.632V1346.37C1638 1354.45 1631.44 1361 1623.36 1361Z" fill="#FF4B55"/>
<path d="M1096 805H803.62C795.546 805 789 811.55 789 819.631V1346.37C789 1354.45 795.546 1361 803.62 1361H1096V805H1096Z" fill="#73AF00"/>
<path d="M1096.5 1214C1169.13 1214 1228 1155.13 1228 1082.5C1228 1009.87 1169.13 951 1096.5 951C1023.87 951 965 1009.87 965 1082.5C965 1155.13 1023.87 1214 1096.5 1214Z" fill="#FFE15A"/>
<path d="M1139.8 1039.27V1097.82C1139.8 1122.03 1120.15 1141.73 1096 1141.73C1071.85 1141.73 1052.2 1122.03 1052.2 1097.82V1039.27H1139.8V1039.27ZM1154.4 1010H1037.6C1029.54 1010 1023 1016.55 1023 1024.64V1097.82C1023 1138.23 1055.68 1171 1096 1171C1136.32 1171 1169 1138.23 1169 1097.82V1024.64C1169 1016.55 1162.46 1010 1154.4 1010Z" fill="#FF4B55"/>
<path d="M1140 1039V1097.29C1140 1121.39 1120.26 1141 1096 1141C1071.74 1141 1052 1121.39 1052 1097.29V1039H1140" fill="#F5F5F5"/>
<path d="M1037.42 1031.65C1041.46 1031.65 1044.73 1028.38 1044.73 1024.34C1044.73 1020.3 1041.46 1017.03 1037.42 1017.03C1033.38 1017.03 1030.11 1020.3 1030.11 1024.34C1030.11 1028.38 1033.38 1031.65 1037.42 1031.65Z" fill="#FFE15A"/>
<path d="M1154.4 1031.65C1158.44 1031.65 1161.71 1028.38 1161.71 1024.34C1161.71 1020.3 1158.44 1017.03 1154.4 1017.03C1150.36 1017.03 1147.09 1020.3 1147.09 1024.34C1147.09 1028.38 1150.36 1031.65 1154.4 1031.65Z" fill="#FFE15A"/>
<path d="M1037.42 1090.14C1041.46 1090.14 1044.73 1086.87 1044.73 1082.83C1044.73 1078.79 1041.46 1075.52 1037.42 1075.52C1033.38 1075.52 1030.11 1078.79 1030.11 1082.83C1030.11 1086.87 1033.38 1090.14 1037.42 1090.14Z" fill="#FFE15A"/>
<path d="M1154.4 1090.14C1158.44 1090.14 1161.71 1086.87 1161.71 1082.83C1161.71 1078.79 1158.44 1075.52 1154.4 1075.52C1150.36 1075.52 1147.09 1078.79 1147.09 1082.83C1147.09 1086.87 1150.36 1090.14 1154.4 1090.14Z" fill="#FFE15A"/>
<path d="M1095.91 1031.65C1099.95 1031.65 1103.22 1028.38 1103.22 1024.34C1103.22 1020.3 1099.95 1017.03 1095.91 1017.03C1091.87 1017.03 1088.6 1020.3 1088.6 1024.34C1088.6 1028.38 1091.87 1031.65 1095.91 1031.65Z" fill="#FFE15A"/>
<path d="M1139.8 1144.06C1143.84 1144.06 1147.12 1140.79 1147.12 1136.75C1147.12 1132.71 1143.84 1129.44 1139.8 1129.44C1135.77 1129.44 1132.49 1132.71 1132.49 1136.75C1132.49 1140.79 1135.77 1144.06 1139.8 1144.06Z" fill="#FFE15A"/>
<path d="M1052.87 1144.06C1056.91 1144.06 1060.18 1140.79 1060.18 1136.75C1060.18 1132.71 1056.91 1129.44 1052.87 1129.44C1048.83 1129.44 1045.56 1132.71 1045.56 1136.75C1045.56 1140.79 1048.83 1144.06 1052.87 1144.06Z" fill="#FFE15A"/>
<path d="M1105.46 1079.12V1091.72C1105.46 1096.92 1101.23 1101.16 1096.02 1101.16C1090.81 1101.16 1086.57 1096.92 1086.57 1091.72V1079.12H1105.46Z" fill="#41479B"/>
<path d="M1105.46 1049.27V1061.86C1105.46 1067.07 1101.23 1071.31 1096.02 1071.31C1090.81 1071.31 1086.57 1067.07 1086.57 1061.86V1049.27H1105.46Z" fill="#41479B"/>
<path d="M1105.46 1109.28V1121.88C1105.46 1127.08 1101.23 1131.32 1096.02 1131.32C1090.81 1131.32 1086.57 1127.08 1086.57 1121.88V1109.28H1105.46Z" fill="#41479B"/>
<path d="M1130.9 1079.12V1091.72C1130.9 1096.92 1126.66 1101.16 1121.45 1101.16C1116.25 1101.16 1112.01 1096.92 1112.01 1091.72V1079.12H1130.9Z" fill="#41479B"/>
<path d="M1080.03 1079.12V1091.72C1080.03 1096.92 1075.79 1101.16 1070.58 1101.16C1065.37 1101.16 1061.14 1096.92 1061.14 1091.72V1079.12H1080.03Z" fill="#41479B"/>
<path d="M1177.04 749.114C1355.29 749.114 1501.24 902.807 1501.24 1090.5C1501.24 1278.2 1355.29 1431.89 1177.04 1431.89C998.788 1431.89 852.831 1278.2 852.831 1090.5C852.831 902.807 998.788 749.114 1177.04 749.114ZM1177.04 735.513C991.038 735.513 839.914 894.647 839.914 1090.5C839.914 1286.36 991.038 1445.5 1177.04 1445.5C1363.04 1445.5 1514.16 1286.36 1514.16 1090.5C1514.16 894.647 1363.04 735.513 1177.04 735.513Z" fill="#fff" fill-opacity="0.3"/>
<path d="M1162.48 815.92C1312.92 815.92 1436.1 939.31 1436.1 1090C1436.1 1240.69 1312.92 1364.08 1162.48 1364.08C1012.04 1364.08 888.858 1240.69 888.858 1090C888.858 939.31 1012.04 815.92 1162.48 815.92ZM1162.48 805C1005.5 805 877.957 932.759 877.957 1090C877.957 1247.24 1005.5 1375 1162.48 1375C1319.46 1375 1447 1247.24 1447 1090C1447 932.759 1319.46 805 1162.48 805Z" fill="#fff"/>
</g>
<path d="M659.357 417C675.337 417 715.018 470.791 715.018 564.878C715.018 590.244 716.814 606.975 716.814 606.975C716.833 607.056 720.384 620.774 857.985 645.196C860.548 645.651 863.282 643.996 865.286 642.336C867.501 640.502 871.457 638.725 878.412 638.996C890.249 639.266 897.149 646.805 899.865 650.57C900.785 651.845 902.129 652.817 903.681 653.067L1026.21 672.868C1028.07 673.168 1029.94 672.387 1031.36 671.156C1033.8 669.047 1038.3 666.245 1044.68 666.701C1051.46 667.186 1055.87 670.857 1058.02 673.2C1059.09 674.361 1060.51 675.231 1062.08 675.359L1206.28 687.083C1208.51 687.264 1210.59 685.941 1211.37 683.844C1212.41 681.055 1213.76 677.47 1214.18 676.416C1214.9 674.617 1213.82 701.961 1203.23 702.142C1193.91 702.142 1097.98 702.419 1074.95 702.486C1072.19 702.495 1069.91 704.739 1069.34 707.436C1068.83 709.895 1067.9 713.147 1066.23 716.893C1062.46 725.348 1052.76 733.443 1046.83 733.443C1043.37 733.549 1038.67 730.144 1035.37 727.3C1033.14 725.381 1029.72 725.447 1027.77 727.648L1027.37 728.096C1026.39 729.205 1024.97 729.822 1023.49 729.781L1003.27 729.227C1001.09 729.167 999.251 730.702 997.652 732.183C996.985 732.8 996.144 733.264 995.122 733.264C994.561 733.264 994.097 733.112 993.713 732.864C991.518 731.445 989.872 728.694 987.259 728.6L936.66 726.778C934.003 726.683 931.831 728.763 930.712 731.176C929.893 732.94 928.545 734.506 926.354 734.344C924.192 734.344 922.994 732.734 922.33 730.951C921.395 728.439 919.392 726.16 916.714 726.048L908.868 725.721C906.269 725.612 904.223 727.76 902.522 729.729C901.803 730.56 900.803 731.166 899.42 731.105C896.009 730.925 893.674 725.888 893.674 720.491C893.784 717.291 893.894 710.975 893.963 706.571C894.005 703.906 891.906 701.703 889.242 701.606C886.465 701.506 884.493 704.082 882.698 706.205C882.124 706.885 881.324 707.358 880.208 707.358C878.417 707.358 877.179 706.027 876.361 704.571C875.228 702.554 873.37 700.812 871.058 700.713L847.981 699.727C846.63 699.669 845.477 700.696 845.381 702.045C845.28 703.468 846.389 704.687 847.816 704.721L857.164 704.938C859.252 704.987 861.086 706.33 861.626 708.347C862.535 711.741 863.757 717.306 863.868 723.01C864.048 732.185 862.791 744.058 854.711 744.418C846.631 744.778 769.243 748.195 769.243 748.195C769.164 748.2 731.532 750.354 727.228 750.534C722.918 750.714 719.507 749.275 719.507 747.476C719.507 745.675 719.866 731.645 719.866 731.645C720.046 729.846 720.046 726.608 718.789 726.607H711.03C710.593 726.607 710.177 726.724 709.943 727.094C709.864 727.217 709.796 727.398 709.773 727.542C709.403 729.836 708.734 739.776 708.734 745.856C708.822 748.868 708.78 752.229 708.886 754.865C708.997 757.624 712.171 759.942 714.927 760.121C719.617 760.425 726.34 760.677 729.024 760.789C733.155 760.969 768.526 765.466 768.526 765.466C768.688 765.486 843.761 774.642 845.734 775.001C847.709 775.361 847.529 778.778 845.734 778.778C843.938 778.778 791.329 782.557 759.548 781.657C732.283 780.736 698.744 779.553 689.479 779.226C687.91 779.17 686.428 779.853 685.4 781.039C681.545 785.481 671.488 796.393 663.258 799.404C663.979 799.902 664.218 800.186 663.2 800.187H655.154C654.137 800.187 654.375 799.902 655.094 799.405C646.865 796.393 636.808 785.481 632.954 781.039C631.925 779.853 630.444 779.171 628.875 779.227C619.61 779.554 586.072 780.736 558.807 781.657C527.026 782.557 474.416 778.778 472.62 778.778C470.825 778.778 470.645 775.361 472.62 775.001C474.593 774.642 549.633 765.49 549.828 765.466C549.828 765.466 585.199 760.969 589.33 760.789C591.911 760.677 598.697 760.424 603.426 760.118C606.182 759.94 609.357 757.624 609.468 754.865C609.574 752.23 609.532 748.869 609.62 745.857C609.62 739.777 608.951 729.836 608.581 727.542C608.558 727.398 608.49 727.217 608.411 727.094C608.177 726.724 607.761 726.607 607.323 726.607H599.566C598.309 726.607 598.308 729.847 598.487 731.646C598.49 731.737 598.847 745.683 598.847 747.477C598.846 749.275 595.435 750.714 591.126 750.534C586.82 750.354 549.173 748.2 549.11 748.196C549.11 748.196 471.723 744.778 463.643 744.418C455.563 744.058 454.306 732.185 454.485 723.01C454.597 717.306 455.819 711.741 456.728 708.347C457.268 706.33 459.102 704.987 461.19 704.938L470.538 704.721C471.965 704.687 473.074 703.468 472.973 702.045C472.876 700.696 471.724 699.669 470.373 699.727L447.296 700.714C444.984 700.813 443.126 702.554 441.992 704.571C441.175 706.027 439.937 707.358 438.146 707.358C437.03 707.358 436.23 706.885 435.655 706.205C433.861 704.082 431.889 701.506 429.111 701.607C426.448 701.704 424.349 703.906 424.391 706.571C424.459 710.975 424.57 717.291 424.68 720.491C424.68 725.888 422.345 730.926 418.934 731.105C417.551 731.166 416.551 730.56 415.832 729.729C414.131 727.76 412.085 725.612 409.485 725.721L401.64 726.048C398.962 726.16 396.958 728.439 396.024 730.951C395.36 732.734 394.162 734.344 392.001 734.344C389.809 734.506 388.461 732.94 387.642 731.176C386.522 728.763 384.351 726.683 381.694 726.778L331.095 728.6C328.482 728.694 326.836 731.445 324.641 732.864C324.257 733.112 323.793 733.264 323.232 733.264C322.21 733.264 321.369 732.801 320.702 732.184C319.103 730.703 317.262 729.167 315.083 729.227L294.863 729.782C293.383 729.823 291.961 729.205 290.981 728.096L290.585 727.648C288.639 725.447 285.21 725.382 282.984 727.3C279.683 730.144 274.987 733.55 271.52 733.444C265.594 733.444 255.899 725.349 252.128 716.894C250.458 713.148 249.527 709.896 249.009 707.436C248.441 704.739 246.161 702.495 243.405 702.486C220.372 702.419 124.444 702.142 115.129 702.142C104.535 701.962 103.458 674.617 104.176 676.416C104.597 677.47 105.943 681.056 106.985 683.845C107.768 685.942 109.847 687.264 112.078 687.083L256.272 675.359C257.845 675.231 259.261 674.361 260.33 673.2C262.487 670.857 266.899 667.186 273.675 666.701C280.055 666.245 284.555 669.048 286.992 671.157C288.415 672.388 290.286 673.168 292.144 672.868L414.673 653.067C416.225 652.817 417.569 651.846 418.488 650.571C421.205 646.806 428.104 639.267 439.942 638.997C446.898 638.726 450.854 640.503 453.069 642.337C455.073 643.997 457.806 645.651 460.368 645.196C598.079 620.755 601.526 607.034 601.54 606.975C601.54 606.975 603.336 590.244 603.336 564.878C603.336 470.791 643.017 417.001 658.997 417C659.057 417 659.118 417.006 659.177 417.017C659.236 417.006 659.296 417 659.357 417Z" fill="#fff"/>
<path d="M1292.5 684.5C1292.83 676.042 1293 667.541 1293 659C1293 308.852 1009.15 25 659 25C308.851 25 25 308.852 25 659C25 1009.15 308.851 1293 659 1293C693.2 1293 726.768 1290.29 759.5 1285.08" stroke="#fff" stroke-width="50" stroke-miterlimit="10"/>
</svg>
